<?xml version="1.0" encoding="UTF-8" standalone="no"?>
<!DOCTYPE svg PUBLIC "-//W3C//DTD SVG 1.1//EN" "http://www.w3.org/Graphics/SVG/1.1/DTD/svg11.dtd">
<svg width="100%" height="100%" viewBox="0 0 32 32" version="1.1" xmlns="http://www.w3.org/2000/svg" xmlns:xlink="http://www.w3.org/1999/xlink" xml:space="preserve" xmlns:serif="http://www.serif.com/" style="fill-rule:evenodd;clip-rule:evenodd;stroke-linejoin:round;stroke-miterlimit:2;">
    <g transform="matrix(1,0,0,1,-110.95,-37.0213)">
        <g transform="matrix(1,0,0,1,110.95,37.0213)">
            <rect id="hcj" x="0" y="0" width="32" height="32" style="fill:none;"/>
            <g id="hcj1" serif:id="hcj">
                <g id="hcj.svg" transform="matrix(0.0625,0,0,0.0625,16,16)">
                    <g transform="matrix(1,0,0,1,-256,-256)">
                        <g transform="matrix(1.25603,0,0,1.25603,-25.3286,-34.3299)">
                            <path d="M216.195,102.596C223.477,98.392 232.449,98.392 239.732,102.596C262.813,115.922 313.776,145.346 336.857,158.671C344.139,162.876 348.625,170.646 348.625,179.055L348.625,291.205C348.625,299.614 344.139,307.384 336.857,311.588C313.776,324.914 262.813,354.338 239.732,367.663C232.449,371.868 223.477,371.868 216.195,367.663C193.114,354.338 142.151,324.914 119.07,311.588C111.788,307.384 107.302,299.614 107.302,291.205L107.302,179.055C107.302,170.646 111.788,162.876 119.07,158.671C142.151,145.346 193.114,115.922 216.195,102.596Z" style="fill:rgb(0,7,0);fill-opacity:0.34;"/>
                        </g>
                        <g transform="matrix(1.06032,0,0,1.06032,12.9639,-23.509)">
                            <path d="M372.142,311.338L372.142,331.029C372.142,340.373 367.156,349.007 359.064,353.679L242.287,421.101C234.194,425.773 224.224,425.773 216.132,421.101L99.355,353.679C91.262,349.007 86.277,340.373 86.277,331.029L86.277,275.152L158.362,258.51L372.142,311.338Z" style="fill:rgb(78,120,150);"/>
                        </g>
                        <path d="M104.446,268.241L104.446,184.512C104.446,174.604 109.731,165.448 118.312,160.494L242.134,89.006C250.714,84.052 261.286,84.052 269.866,89.006L393.688,160.494C402.269,165.448 407.554,174.604 407.554,184.512L407.554,198.263L104.446,268.241Z" style="fill:rgb(78,120,150);"/>
                        <path d="M180.879,250.595L407.554,198.263L407.554,306.61L180.879,250.595Z" style="fill:rgb(78,120,150);"/>
                        <path d="M403.807,341.336C401.393,345.518 397.897,349.076 393.57,351.574L269.985,422.926C261.331,427.922 250.669,427.922 242.015,422.926L118.43,351.574C114.103,349.076 110.607,345.519 108.193,341.337L256.001,256L403.807,341.336Z" style="fill:rgb(230,181,36);"/>
                        <path d="M256.001,256L108.193,341.337C105.778,337.155 104.446,332.348 104.446,327.352L104.446,184.648C104.446,174.656 109.776,165.422 118.43,160.426L242.015,89.074C246.342,86.576 251.171,85.327 256.001,85.327L256.001,256Z" style="fill:rgb(218,77,37);"/>
                        <path d="M403.807,341.336L256.001,256L256.001,85.327C260.829,85.327 265.658,86.576 269.985,89.074L393.57,160.426C402.224,165.422 407.554,174.656 407.554,184.648L407.554,327.352C407.554,332.348 406.222,337.154 403.807,341.336Z" style="fill:rgb(46,161,210);"/>
                        <g transform="matrix(1,0,0,1,119.684,231.227)">
                            <text x="0px" y="0px" style="font-family:'ArialNarrow-Bold', 'Arial', sans-serif;font-weight:700;font-stretch:condensed;font-size:50px;fill:white;">HTML</text>
                        </g>
                        <g transform="matrix(1,0,0,1,289.663,231.837)">
                            <text x="0px" y="0px" style="font-family:'ArialNarrow-Bold', 'Arial', sans-serif;font-weight:700;font-stretch:condensed;font-size:50px;fill:white;">CSS</text>
                        </g>
                        <g transform="matrix(1,0,0,1,231.574,359.232)">
                            <text x="0px" y="0px" style="font-family:'ArialNarrow-Bold', 'Arial', sans-serif;font-weight:700;font-stretch:condensed;font-size:50px;">JS</text>
                        </g>
                    </g>
                </g>
            </g>
        </g>
    </g>
</svg>
