<?xml version="1.0" encoding="UTF-8" standalone="no"?>
<!DOCTYPE svg PUBLIC "-//W3C//DTD SVG 1.1//EN" "http://www.w3.org/Graphics/SVG/1.1/DTD/svg11.dtd">
<svg width="100%" height="100%" viewBox="0 0 32 32" version="1.1" xmlns="http://www.w3.org/2000/svg" xmlns:xlink="http://www.w3.org/1999/xlink" xml:space="preserve" xmlns:serif="http://www.serif.com/" style="fill-rule:evenodd;clip-rule:evenodd;stroke-linejoin:round;stroke-miterlimit:2;">
    <g transform="matrix(1,0,0,1,0,-37.0213)">
        <g transform="matrix(1,0,0,1,0,37.0213)">
            <rect id="sql" x="0" y="0" width="32" height="32" style="fill:none;"/>
            <g id="sql1" serif:id="sql">
                <g id="sql.svg" transform="matrix(0.0625,0,0,0.0625,16,16)">
                    <g transform="matrix(1,0,0,1,-256,-256)">
                        <g transform="matrix(1.25603,0,0,1.25603,-25.3286,-34.3299)">
                            <path d="M216.195,102.596C223.477,98.392 232.449,98.392 239.732,102.596C262.813,115.922 313.776,145.346 336.857,158.671C344.139,162.876 348.625,170.646 348.625,179.055L348.625,291.205C348.625,299.614 344.139,307.384 336.857,311.588C313.776,324.914 262.813,354.338 239.732,367.663C232.449,371.868 223.477,371.868 216.195,367.663C193.114,354.338 142.151,324.914 119.07,311.588C111.788,307.384 107.302,299.614 107.302,291.205L107.302,179.055C107.302,170.646 111.788,162.876 119.07,158.671C142.151,145.346 193.114,115.922 216.195,102.596Z" style="fill:rgb(0,7,0);fill-opacity:0.34;"/>
                        </g>
                        <g transform="matrix(1.26459,0,0,1.26459,-98.21,-76.7088)">
                            <path d="M271.117,129.898C276.675,126.689 283.524,126.689 289.082,129.898C311.317,142.735 368.727,175.881 390.962,188.718C396.52,191.927 399.945,197.858 399.945,204.277L399.945,321.917C399.945,328.335 396.52,334.266 390.962,337.475C368.727,350.313 311.317,383.458 289.082,396.295C283.524,399.505 276.675,399.505 271.117,396.295C248.882,383.458 191.473,350.313 169.237,337.475C163.679,334.266 160.255,328.335 160.255,321.917L160.255,204.277C160.255,197.858 163.679,191.927 169.237,188.718C191.473,175.881 248.882,142.735 271.117,129.898Z" style="fill:rgb(59,59,59);"/>
                        </g>
                        <g transform="matrix(1,0,0,1,172.127,290.491)">
                            <text x="0px" y="0px" style="font-family:'ArialNarrow-Bold', 'Arial', sans-serif;font-weight:700;font-stretch:condensed;font-size:105.117px;fill:white;">SQL</text>
                        </g>
                    </g>
                </g>
            </g>
        </g>
    </g>
</svg>
